<?xml version="1.0" encoding="utf-8"?>
<!-- Generator: Adobe Illustrator 27.5.0, SVG Export Plug-In . SVG Version: 6.00 Build 0)  -->
<svg version="1.1" id="Layer_1" xmlns="http://www.w3.org/2000/svg" xmlns:xlink="http://www.w3.org/1999/xlink" x="0px" y="0px"
	 viewBox="0 0 1000 1237.18" style="enable-background:new 0 0 1000 1237.18;" xml:space="preserve">
<title>Abstract background</title>
<desc>author: David Zydd</desc>
<g>
	<defs>
		<rect id="SVGID_1_" y="0" width="1000" height="1237.18"/>
	</defs>
	<use xlink:href="#SVGID_1_"  style="overflow:visible;fill:#FFFFFF;"/>
	<clipPath id="SVGID_00000049908620121503624080000004191168459568882331_">
		<use xlink:href="#SVGID_1_"  style="overflow:visible;"/>
	</clipPath>
	<g style="clip-path:url(#SVGID_00000049908620121503624080000004191168459568882331_);">
		<g id="all">
			<path style="fill:#E38900;stroke:#000000;stroke-width:0.01;" d="M-107.143,0l35.714-61.859H0L35.714,0L0,61.859h-71.429
				L-107.143,0z"/>
			<path style="fill:#FFBA30;stroke:#000000;stroke-width:0.01;" d="M107.143,0l35.714-61.859h71.429L250,0l-35.714,61.859h-71.429
				L107.143,0z"/>
			<path style="fill:#FFA921;stroke:#000000;stroke-width:0.01;" d="M321.429,0l35.714-61.859h71.429L464.286,0l-35.715,61.859
				h-71.429L321.429,0z"/>
			<path style="fill:#F69F14;stroke:#000000;stroke-width:0.01;" d="M535.714,0l35.715-61.859h71.429L678.571,0l-35.714,61.859
				h-71.429L535.714,0z"/>
			<path style="fill:#FFC035;stroke:#000000;stroke-width:0.01;" d="M750,0l35.714-61.859h71.429L892.857,0l-35.715,61.859h-71.429
				L750,0z"/>
			<path style="fill:#E38E03;stroke:#000000;stroke-width:0.01;" d="M964.286,0L1000-61.859h71.429L1107.143,0l-35.714,61.859H1000
				L964.286,0z"/>
			<path style="fill:#FFAB21;stroke:#000000;stroke-width:0.01;" d="M0,61.859L35.714,0h71.429l35.714,61.859l-35.714,61.859H35.714
				L0,61.859z"/>
			<path style="fill:#FFAC22;stroke:#000000;stroke-width:0.01;" d="M214.286,61.859L250,0h71.429l35.714,61.859l-35.714,61.859H250
				L214.286,61.859z"/>
			<path style="fill:#FFB026;stroke:#000000;stroke-width:0.01;" d="M428.571,61.859L464.286,0h71.428l35.715,61.859l-35.715,61.859
				h-71.428L428.571,61.859z"/>
			<path style="fill:#FFBF34;stroke:#000000;stroke-width:0.01;" d="M642.857,61.859L678.571,0H750l35.714,61.859L750,123.718
				h-71.429L642.857,61.859z"/>
			<path style="fill:#FFBB30;stroke:#000000;stroke-width:0.01;" d="M857.143,61.859L892.857,0h71.429L1000,61.859l-35.714,61.859
				h-71.429L857.143,61.859z"/>
			<path style="fill:#FAA018;stroke:#000000;stroke-width:0.01;" d="M-107.143,123.718l35.714-61.859H0l35.714,61.859L0,185.577
				h-71.429L-107.143,123.718z"/>
			<path style="fill:#FFA921;stroke:#000000;stroke-width:0.01;" d="M107.143,123.718l35.714-61.859h71.429L250,123.718
				l-35.714,61.859h-71.429L107.143,123.718z"/>
			<path style="fill:#EC9208;stroke:#000000;stroke-width:0.01;" d="M321.429,123.718l35.714-61.859h71.429l35.715,61.859
				l-35.715,61.859h-71.429L321.429,123.718z"/>
			<path style="fill:#FFC63B;stroke:#000000;stroke-width:0.01;" d="M535.714,123.718l35.715-61.859h71.429l35.714,61.859
				l-35.714,61.859h-71.429L535.714,123.718z"/>
			<path style="fill:#FFC338;stroke:#000000;stroke-width:0.01;" d="M750,123.718l35.714-61.859h71.429l35.715,61.859
				l-35.715,61.859h-71.429L750,123.718z"/>
			<path style="fill:#FFB328;stroke:#000000;stroke-width:0.01;" d="M964.286,123.718L1000,61.859h71.429l35.714,61.859
				l-35.714,61.859H1000L964.286,123.718z"/>
			<path style="fill:#EA8E07;stroke:#000000;stroke-width:0.01;" d="M0,185.577l35.714-61.859h71.429l35.714,61.859l-35.714,61.859
				H35.714L0,185.577z"/>
			<path style="fill:#EF930C;stroke:#000000;stroke-width:0.01;" d="M214.286,185.577L250,123.718h71.429l35.714,61.859
				l-35.714,61.859H250L214.286,185.577z"/>
			<path style="fill:#FFBF35;stroke:#000000;stroke-width:0.01;" d="M428.571,185.577l35.715-61.859h71.428l35.715,61.859
				l-35.715,61.859h-71.428L428.571,185.577z"/>
			<path style="fill:#FFB62B;stroke:#000000;stroke-width:0.01;" d="M642.857,185.577l35.714-61.859H750l35.714,61.859L750,247.436
				h-71.429L642.857,185.577z"/>
			<path style="fill:#FFBD32;stroke:#000000;stroke-width:0.01;" d="M857.143,185.577l35.715-61.859h71.429L1000,185.577
				l-35.714,61.859h-71.429L857.143,185.577z"/>
			<path style="fill:#FFAA24;stroke:#000000;stroke-width:0.01;" d="M-107.143,247.436l35.714-61.859H0l35.714,61.859L0,309.295
				h-71.429L-107.143,247.436z"/>
			<path style="fill:#FFA11B;stroke:#000000;stroke-width:0.01;" d="M107.143,247.436l35.714-61.859h71.429L250,247.436
				l-35.714,61.859h-71.429L107.143,247.436z"/>
			<path style="fill:#FFBC35;stroke:#000000;stroke-width:0.01;" d="M321.429,247.436l35.714-61.859h71.429l35.715,61.859
				l-35.715,61.859h-71.429L321.429,247.436z"/>
			<path style="fill:#FFC038;stroke:#000000;stroke-width:0.01;" d="M535.714,247.436l35.715-61.859h71.429l35.714,61.859
				l-35.714,61.859h-71.429L535.714,247.436z"/>
			<path style="fill:#EB9409;stroke:#000000;stroke-width:0.01;" d="M750,247.436l35.714-61.859h71.429l35.715,61.859
				l-35.715,61.859h-71.429L750,247.436z"/>
			<path style="fill:#FFBD32;stroke:#000000;stroke-width:0.01;" d="M964.286,247.436L1000,185.577h71.429l35.714,61.859
				l-35.714,61.859H1000L964.286,247.436z"/>
			<path style="fill:#E98B05;stroke:#000000;stroke-width:0.01;" d="M0,309.295l35.714-61.859h71.429l35.714,61.859l-35.714,61.859
				H35.714L0,309.295z"/>
			<path style="fill:#FFAB25;stroke:#000000;stroke-width:0.01;" d="M214.286,309.295L250,247.436h71.429l35.714,61.859
				l-35.714,61.859H250L214.286,309.295z"/>
			<path style="fill:#FFB32C;stroke:#000000;stroke-width:0.01;" d="M428.571,309.295l35.715-61.859h71.428l35.715,61.859
				l-35.715,61.859h-71.428L428.571,309.295z"/>
			<path style="fill:#FFA820;stroke:#000000;stroke-width:0.01;" d="M642.857,309.295l35.714-61.859H750l35.714,61.859L750,371.154
				h-71.429L642.857,309.295z"/>
			<path style="fill:#FFB025;stroke:#000000;stroke-width:0.01;" d="M857.143,309.295l35.715-61.859h71.429L1000,309.295
				l-35.714,61.859h-71.429L857.143,309.295z"/>
			<path style="fill:#DD7F00;stroke:#000000;stroke-width:0.01;" d="M-107.143,371.154l35.714-61.859H0l35.714,61.859L0,433.013
				h-71.429L-107.143,371.154z"/>
			<path style="fill:#F89A16;stroke:#000000;stroke-width:0.01;" d="M107.143,371.154l35.714-61.859h71.429L250,371.154
				l-35.714,61.859h-71.429L107.143,371.154z"/>
			<path style="fill:#D97B00;stroke:#000000;stroke-width:0.01;" d="M321.429,371.154l35.714-61.859h71.429l35.715,61.859
				l-35.715,61.859h-71.429L321.429,371.154z"/>
			<path style="fill:#E38700;stroke:#000000;stroke-width:0.01;" d="M535.714,371.154l35.715-61.859h71.429l35.714,61.859
				l-35.714,61.859h-71.429L535.714,371.154z"/>
			<path style="fill:#DF8500;stroke:#000000;stroke-width:0.01;" d="M750,371.154l35.714-61.859h71.429l35.715,61.859
				l-35.715,61.859h-71.429L750,371.154z"/>
			<path style="fill:#F19A0F;stroke:#000000;stroke-width:0.01;" d="M964.286,371.154L1000,309.295h71.429l35.714,61.859
				l-35.714,61.859H1000L964.286,371.154z"/>
			<path style="fill:#FFB734;stroke:#000000;stroke-width:0.01;" d="M0,433.013l35.714-61.859h71.429l35.714,61.859l-35.714,61.859
				H35.714L0,433.013z"/>
			<path style="fill:#FFA722;stroke:#000000;stroke-width:0.01;" d="M214.286,433.013L250,371.154h71.429l35.714,61.859
				l-35.714,61.859H250L214.286,433.013z"/>
			<path style="fill:#FEA01A;stroke:#000000;stroke-width:0.01;" d="M428.571,433.013l35.715-61.859h71.428l35.715,61.859
				l-35.715,61.859h-71.428L428.571,433.013z"/>
			<path style="fill:#E58902;stroke:#000000;stroke-width:0.01;" d="M642.857,433.013l35.714-61.859H750l35.714,61.859L750,494.872
				h-71.429L642.857,433.013z"/>
			<path style="fill:#FFA921;stroke:#000000;stroke-width:0.01;" d="M857.143,433.013l35.715-61.859h71.429L1000,433.013
				l-35.714,61.859h-71.429L857.143,433.013z"/>
			<path style="fill:#F18E0C;stroke:#000000;stroke-width:0.01;" d="M-107.143,494.872l35.714-61.859H0l35.714,61.859L0,556.73
				h-71.429L-107.143,494.872z"/>
			<path style="fill:#FFA321;stroke:#000000;stroke-width:0.01;" d="M107.143,494.872l35.714-61.859h71.429L250,494.872
				l-35.714,61.858h-71.429L107.143,494.872z"/>
			<path style="fill:#E28100;stroke:#000000;stroke-width:0.01;" d="M321.429,494.872l35.714-61.859h71.429l35.715,61.859
				l-35.715,61.858h-71.429L321.429,494.872z"/>
			<path style="fill:#FFAC26;stroke:#000000;stroke-width:0.01;" d="M535.714,494.872l35.715-61.859h71.429l35.714,61.859
				l-35.714,61.858h-71.429L535.714,494.872z"/>
			<path style="fill:#E68A01;stroke:#000000;stroke-width:0.01;" d="M750,494.872l35.714-61.859h71.429l35.715,61.859
				l-35.715,61.858h-71.429L750,494.872z"/>
			<path style="fill:#FBA419;stroke:#000000;stroke-width:0.01;" d="M964.286,494.872L1000,433.013h71.429l35.714,61.859
				l-35.714,61.858H1000L964.286,494.872z"/>
			<path style="fill:#E48100;stroke:#000000;stroke-width:0.01;" d="M0,556.73l35.714-61.858h71.429l35.714,61.858l-35.714,61.859
				H35.714L0,556.73z"/>
			<path style="fill:#F99614;stroke:#000000;stroke-width:0.01;" d="M214.286,556.73L250,494.872h71.429l35.714,61.858
				l-35.714,61.859H250L214.286,556.73z"/>
			<path style="fill:#D97800;stroke:#000000;stroke-width:0.01;" d="M428.571,556.73l35.715-61.858h71.428l35.715,61.858
				l-35.715,61.859h-71.428L428.571,556.73z"/>
			<path style="fill:#FFAE28;stroke:#000000;stroke-width:0.01;" d="M642.857,556.73l35.714-61.858H750l35.714,61.858L750,618.59
				h-71.429L642.857,556.73z"/>
			<path style="fill:#F59912;stroke:#000000;stroke-width:0.01;" d="M857.143,556.73l35.715-61.858h71.429L1000,556.73
				l-35.714,61.859h-71.429L857.143,556.73z"/>
			<path style="fill:#FFAD2B;stroke:#000000;stroke-width:0.01;" d="M-107.143,618.59l35.714-61.859H0l35.714,61.859L0,680.448
				h-71.429L-107.143,618.59z"/>
			<path style="fill:#D67100;stroke:#000000;stroke-width:0.01;" d="M107.143,618.59l35.714-61.859h71.429L250,618.59
				l-35.714,61.858h-71.429L107.143,618.59z"/>
			<path style="fill:#FFA11F;stroke:#000000;stroke-width:0.01;" d="M321.429,618.59l35.714-61.859h71.429l35.715,61.859
				l-35.715,61.858h-71.429L321.429,618.59z"/>
			<path style="fill:#FF9F1A;stroke:#000000;stroke-width:0.01;" d="M535.714,618.59l35.715-61.859h71.429l35.714,61.859
				l-35.714,61.858h-71.429L535.714,618.59z"/>
			<path style="fill:#FFB62F;stroke:#000000;stroke-width:0.01;" d="M750,618.59l35.714-61.859h71.429l35.715,61.859l-35.715,61.858
				h-71.429L750,618.59z"/>
			<path style="fill:#DF8500;stroke:#000000;stroke-width:0.01;" d="M964.286,618.59L1000,556.73h71.429l35.714,61.859
				l-35.714,61.858H1000L964.286,618.59z"/>
			<path style="fill:#E37D00;stroke:#000000;stroke-width:0.01;" d="M0,680.448l35.714-61.858h71.429l35.714,61.858l-35.714,61.859
				H35.714L0,680.448z"/>
			<path style="fill:#FFB02E;stroke:#000000;stroke-width:0.01;" d="M214.286,680.448L250,618.59h71.429l35.714,61.858
				l-35.714,61.859H250L214.286,680.448z"/>
			<path style="fill:#F3900E;stroke:#000000;stroke-width:0.01;" d="M428.571,680.448l35.715-61.858h71.428l35.715,61.858
				l-35.715,61.859h-71.428L428.571,680.448z"/>
			<path style="fill:#E68500;stroke:#000000;stroke-width:0.01;" d="M642.857,680.448l35.714-61.858H750l35.714,61.858L750,742.308
				h-71.429L642.857,680.448z"/>
			<path style="fill:#EF930C;stroke:#000000;stroke-width:0.01;" d="M857.143,680.448l35.715-61.858h71.429L1000,680.448
				l-35.714,61.859h-71.429L857.143,680.448z"/>
			<path style="fill:#F08909;stroke:#000000;stroke-width:0.01;" d="M-107.143,742.308l35.714-61.859H0l35.714,61.859L0,804.166
				h-71.429L-107.143,742.308z"/>
			<path style="fill:#FA9414;stroke:#000000;stroke-width:0.01;" d="M107.143,742.308l35.714-61.859h71.429L250,742.308
				l-35.714,61.858h-71.429L107.143,742.308z"/>
			<path style="fill:#F18C0A;stroke:#000000;stroke-width:0.01;" d="M321.429,742.308l35.714-61.859h71.429l35.715,61.859
				l-35.715,61.858h-71.429L321.429,742.308z"/>
			<path style="fill:#D77400;stroke:#000000;stroke-width:0.01;" d="M535.714,742.308l35.715-61.859h71.429l35.714,61.859
				l-35.714,61.858h-71.429L535.714,742.308z"/>
			<path style="fill:#FFB832;stroke:#000000;stroke-width:0.01;" d="M750,742.308l35.714-61.859h71.429l35.715,61.859
				l-35.715,61.858h-71.429L750,742.308z"/>
			<path style="fill:#F2960F;stroke:#000000;stroke-width:0.01;" d="M964.286,742.308L1000,680.448h71.429l35.714,61.859
				l-35.714,61.858H1000L964.286,742.308z"/>
			<path style="fill:#FF9E1E;stroke:#000000;stroke-width:0.01;" d="M0,804.166l35.714-61.858h71.429l35.714,61.858l-35.714,61.859
				H35.714L0,804.166z"/>
			<path style="fill:#E88100;stroke:#000000;stroke-width:0.01;" d="M214.286,804.166L250,742.308h71.429l35.714,61.858
				l-35.714,61.859H250L214.286,804.166z"/>
			<path style="fill:#FA9715;stroke:#000000;stroke-width:0.01;" d="M428.571,804.166l35.715-61.858h71.428l35.715,61.858
				l-35.715,61.859h-71.428L428.571,804.166z"/>
			<path style="fill:#FFA21D;stroke:#000000;stroke-width:0.01;" d="M642.857,804.166l35.714-61.858H750l35.714,61.858L750,866.025
				h-71.429L642.857,804.166z"/>
			<path style="fill:#E68802;stroke:#000000;stroke-width:0.01;" d="M857.143,804.166l35.715-61.858h71.429L1000,804.166
				l-35.714,61.859h-71.429L857.143,804.166z"/>
			<path style="fill:#DF7600;stroke:#000000;stroke-width:0.01;" d="M-107.143,866.025l35.714-61.859H0l35.714,61.859L0,927.885
				h-71.429L-107.143,866.025z"/>
			<path style="fill:#E77E00;stroke:#000000;stroke-width:0.01;" d="M107.143,866.025l35.714-61.859h71.429L250,866.025
				l-35.714,61.859h-71.429L107.143,866.025z"/>
			<path style="fill:#FB9414;stroke:#000000;stroke-width:0.01;" d="M321.429,866.025l35.714-61.859h71.429l35.715,61.859
				l-35.715,61.859h-71.429L321.429,866.025z"/>
			<path style="fill:#FF9F1D;stroke:#000000;stroke-width:0.01;" d="M535.714,866.025l35.715-61.859h71.429l35.714,61.859
				l-35.714,61.859h-71.429L535.714,866.025z"/>
			<path style="fill:#FFA421;stroke:#000000;stroke-width:0.01;" d="M750,866.025l35.714-61.859h71.429l35.715,61.859
				l-35.715,61.859h-71.429L750,866.025z"/>
			<path style="fill:#E38700;stroke:#000000;stroke-width:0.01;" d="M964.286,866.025L1000,804.166h71.429l35.714,61.859
				l-35.714,61.859H1000L964.286,866.025z"/>
			<path style="fill:#DA7100;stroke:#000000;stroke-width:0.01;" d="M0,927.885l35.714-61.859h71.429l35.714,61.859l-35.714,61.858
				H35.714L0,927.885z"/>
			<path style="fill:#E67D00;stroke:#000000;stroke-width:0.01;" d="M214.286,927.885L250,866.025h71.429l35.714,61.859
				l-35.714,61.858H250L214.286,927.885z"/>
			<path style="fill:#FF9E1D;stroke:#000000;stroke-width:0.01;" d="M428.571,927.885l35.715-61.859h71.428l35.715,61.859
				l-35.715,61.858h-71.428L428.571,927.885z"/>
			<path style="fill:#D87500;stroke:#000000;stroke-width:0.01;" d="M642.857,927.885l35.714-61.859H750l35.714,61.859L750,989.743
				h-71.429L642.857,927.885z"/>
			<path style="fill:#EA8C06;stroke:#000000;stroke-width:0.01;" d="M857.143,927.885l35.715-61.859h71.429L1000,927.885
				l-35.714,61.858h-71.429L857.143,927.885z"/>
			<path style="fill:#D16800;stroke:#000000;stroke-width:0.01;" d="M-107.143,989.743l35.714-61.858H0l35.714,61.858L0,1051.603
				h-71.429L-107.143,989.743z"/>
			<path style="fill:#ED8103;stroke:#000000;stroke-width:0.01;" d="M107.143,989.743l35.714-61.858h71.429L250,989.743
				l-35.714,61.859h-71.429L107.143,989.743z"/>
			<path style="fill:#D46B00;stroke:#000000;stroke-width:0.01;" d="M321.429,989.743l35.714-61.858h71.429l35.715,61.858
				l-35.715,61.859h-71.429L321.429,989.743z"/>
			<path style="fill:#FFAF2D;stroke:#000000;stroke-width:0.01;" d="M535.714,989.743l35.715-61.858h71.429l35.714,61.858
				l-35.714,61.859h-71.429L535.714,989.743z"/>
			<path style="fill:#FFAB29;stroke:#000000;stroke-width:0.01;" d="M750,989.743l35.714-61.858h71.429l35.715,61.858
				l-35.715,61.859h-71.429L750,989.743z"/>
			<path style="fill:#FFA923;stroke:#000000;stroke-width:0.01;" d="M964.286,989.743L1000,927.885h71.429l35.714,61.858
				l-35.714,61.859H1000L964.286,989.743z"/>
			<path style="fill:#D96D00;stroke:#000000;stroke-width:0.01;" d="M0,1051.603l35.714-61.859h71.429l35.714,61.859l-35.714,61.858
				H35.714L0,1051.603z"/>
			<path style="fill:#E47800;stroke:#000000;stroke-width:0.01;" d="M214.286,1051.603L250,989.743h71.429l35.714,61.859
				l-35.714,61.858H250L214.286,1051.603z"/>
			<path style="fill:#FF9B1B;stroke:#000000;stroke-width:0.01;" d="M428.571,1051.603l35.715-61.859h71.428l35.715,61.859
				l-35.715,61.858h-71.428L428.571,1051.603z"/>
			<path style="fill:#FA9513;stroke:#000000;stroke-width:0.01;" d="M642.857,1051.603l35.714-61.859H750l35.714,61.859
				L750,1113.461h-71.429L642.857,1051.603z"/>
			<path style="fill:#EF8E09;stroke:#000000;stroke-width:0.01;" d="M857.143,1051.603l35.715-61.859h71.429l35.714,61.859
				l-35.714,61.858h-71.429L857.143,1051.603z"/>
			<path style="fill:#DC6E00;stroke:#000000;stroke-width:0.01;" d="M-107.143,1113.461l35.714-61.858H0l35.714,61.858L0,1175.32
				h-71.429L-107.143,1113.461z"/>
			<path style="fill:#FE9015;stroke:#000000;stroke-width:0.01;" d="M107.143,1113.461l35.714-61.858h71.429L250,1113.461
				l-35.714,61.859h-71.429L107.143,1113.461z"/>
			<path style="fill:#D16500;stroke:#000000;stroke-width:0.01;" d="M321.429,1113.461l35.714-61.858h71.429l35.715,61.858
				l-35.715,61.859h-71.429L321.429,1113.461z"/>
			<path style="fill:#FC9515;stroke:#000000;stroke-width:0.01;" d="M535.714,1113.461l35.715-61.858h71.429l35.714,61.858
				l-35.714,61.859h-71.429L535.714,1113.461z"/>
			<path style="fill:#FFA11F;stroke:#000000;stroke-width:0.01;" d="M750,1113.461l35.714-61.858h71.429l35.715,61.858
				l-35.715,61.859h-71.429L750,1113.461z"/>
			<path style="fill:#FFB02A;stroke:#000000;stroke-width:0.01;" d="M964.286,1113.461l35.714-61.858h71.429l35.714,61.858
				l-35.714,61.859H1000L964.286,1113.461z"/>
			<path style="fill:#D26100;stroke:#000000;stroke-width:0.01;" d="M0,1175.32l35.714-61.859h71.429l35.714,61.859l-35.714,61.859
				H35.714L0,1175.32z"/>
			<path style="fill:#D06200;stroke:#000000;stroke-width:0.01;" d="M214.286,1175.32L250,1113.461h71.429l35.714,61.859
				l-35.714,61.859H250L214.286,1175.32z"/>
			<path style="fill:#FF9C1D;stroke:#000000;stroke-width:0.01;" d="M428.571,1175.32l35.715-61.859h71.428l35.715,61.859
				l-35.715,61.859h-71.428L428.571,1175.32z"/>
			<path style="fill:#FFAF2F;stroke:#000000;stroke-width:0.01;" d="M642.857,1175.32l35.714-61.859H750l35.714,61.859L750,1237.18
				h-71.429L642.857,1175.32z"/>
			<path style="fill:#FFA41F;stroke:#000000;stroke-width:0.01;" d="M857.143,1175.32l35.715-61.859h71.429L1000,1175.32
				l-35.714,61.859h-71.429L857.143,1175.32z"/>
			<path style="fill:#EE7D03;stroke:#000000;stroke-width:0.01;" d="M-107.143,1237.18l35.714-61.859H0l35.714,61.859L0,1299.038
				h-71.429L-107.143,1237.18z"/>
			<path style="fill:#ED7C02;stroke:#000000;stroke-width:0.01;" d="M107.143,1237.18l35.714-61.859h71.429L250,1237.18
				l-35.714,61.858h-71.429L107.143,1237.18z"/>
			<path style="fill:#E07400;stroke:#000000;stroke-width:0.01;" d="M321.429,1237.18l35.714-61.859h71.429l35.715,61.859
				l-35.715,61.858h-71.429L321.429,1237.18z"/>
			<path style="fill:#FFA726;stroke:#000000;stroke-width:0.01;" d="M535.714,1237.18l35.715-61.859h71.429l35.714,61.859
				l-35.714,61.858h-71.429L535.714,1237.18z"/>
			<path style="fill:#DA7500;stroke:#000000;stroke-width:0.01;" d="M750,1237.18l35.714-61.859h71.429l35.715,61.859
				l-35.715,61.858h-71.429L750,1237.18z"/>
			<path style="fill:#FFAB25;stroke:#000000;stroke-width:0.01;" d="M964.286,1237.18L1000,1175.32h71.429l35.714,61.859
				l-35.714,61.858H1000L964.286,1237.18z"/>
		</g>
	</g>
</g>
</svg>
